<svg width="25" height="25" viewBox="0 0 25 25" fill="none" xmlns="http://www.w3.org/2000/svg">
    <path d="M23.375 13.4546C23.1849 15.5114 22.413 17.4716 21.1496 19.1057C19.8861 20.7398 18.1834 21.9803 16.2406 22.6821C14.2979 23.3838 12.1955 23.5177 10.1794 23.0682C8.16332 22.6187 6.31695 21.6042 4.85636 20.1436C3.39576 18.683 2.38135 16.8367 1.93181 14.8206C1.48227 12.8045 1.6162 10.7021 2.31793 8.75936C3.01967 6.81662 4.26017 5.1139 5.8943 3.85045C7.52843 2.587 9.48859 1.81508 11.5454 1.625C10.3412 3.25416 9.76174 5.26142 9.9124 7.28171C10.0631 9.302 10.9338 11.2011 12.3664 12.6336C13.7989 14.0662 15.698 14.9369 17.7183 15.0876C19.7386 15.2383 21.7458 14.6588 23.375 13.4546Z" 
    stroke="black"
    stroke-width="2.83" 
    stroke-linecap="round" 
    stroke-linejoin="round" />
</svg>