<svg width="29" height="29" viewBox="0 0 29 29" fill="none" xmlns="http://www.w3.org/2000/svg">
<path d="M25.375 15.4546C25.1849 17.5114 24.413 19.4716 23.1496 21.1057C21.8861 22.7398 20.1834 23.9803 18.2406 24.6821C16.2979 25.3838 14.1955 25.5177 12.1794 25.0682C10.1633 24.6187 8.31695 23.6042 6.85636 22.1436C5.39576 20.683 4.38135 18.8367 3.93181 16.8206C3.48227 14.8045 3.6162 12.7021 4.31793 10.7594C5.01967 8.81662 6.26017 7.1139 7.8943 5.85045C9.52843 4.587 11.4886 3.81508 13.5454 3.625C12.3412 5.25416 11.7617 7.26142 11.9124 9.28171C12.0631 11.302 12.9338 13.2011 14.3664 14.6336C15.7989 16.0662 17.698 16.9369 19.7183 17.0876C21.7386 17.2383 23.7458 16.6588 25.375 15.4546Z" fill="white"/>
</svg>
