<svg width="77" height="77" viewBox="0 0 77 77" fill="none" xmlns="http://www.w3.org/2000/svg">
<circle cx="38.5" cy="38.5" r="38.5" fill="#3A72E4"/>
<path d="M26.9406 29.6099V47.9951C26.9406 49.918 26.4304 51.4111 25.4099 52.4746C24.3894 53.5488 22.9177 54.0859 20.9948 54.0859C20.1892 54.0859 19.4211 53.9946 18.6906 53.812V50.1221C19.2492 50.2188 19.738 50.2671 20.1569 50.2671C21.5642 50.2671 22.2678 49.5205 22.2678 48.0273V29.6099H26.9406ZM21.8972 25.0981C21.8972 24.3999 22.1281 23.8252 22.59 23.374C23.0627 22.9229 23.7019 22.6973 24.5075 22.6973C25.3132 22.6973 25.947 22.9229 26.4089 23.374C26.8815 23.8252 27.1179 24.3999 27.1179 25.0981C27.1179 25.8071 26.8762 26.3872 26.3928 26.8384C25.9201 27.2896 25.2917 27.5151 24.5075 27.5151C23.7233 27.5151 23.0896 27.2896 22.6062 26.8384C22.1335 26.3872 21.8972 25.8071 21.8972 25.0981ZM34.9489 29.6099L35.0939 31.5596C36.3293 30.0449 37.9997 29.2876 40.1052 29.2876C42.3503 29.2876 43.8918 30.1738 44.7297 31.9463C45.9543 30.1738 47.6999 29.2876 49.9665 29.2876C51.8571 29.2876 53.2644 29.8408 54.1882 30.9473C55.112 32.043 55.5739 33.6973 55.5739 35.9102V47.0444H50.9011V35.9263C50.9011 34.938 50.7077 34.2183 50.321 33.7671C49.9343 33.3052 49.2521 33.0742 48.2746 33.0742C46.8781 33.0742 45.9113 33.7402 45.3742 35.0723L45.3903 47.0444H40.7336V35.9424C40.7336 34.9326 40.5349 34.2021 40.1374 33.751C39.7399 33.2998 39.0632 33.0742 38.1071 33.0742C36.7858 33.0742 35.8298 33.6221 35.239 34.7178V47.0444H30.5822V29.6099H34.9489Z" fill="white"/>
</svg>
